<?xml version="1.0" encoding="UTF-8" standalone="no"?>
<!-- Created with Inkscape (http://www.inkscape.org/) -->

<svg
   xmlns:dc="http://purl.org/dc/elements/1.1/"
   xmlns:cc="http://creativecommons.org/ns#"
   xmlns:rdf="http://www.w3.org/1999/02/22-rdf-syntax-ns#"
   xmlns:svg="http://www.w3.org/2000/svg"
   xmlns="http://www.w3.org/2000/svg"
   xmlns:sodipodi="http://sodipodi.sourceforge.net/DTD/sodipodi-0.dtd"
   xmlns:inkscape="http://www.inkscape.org/namespaces/inkscape"
   width="210mm"
   height="297mm"
   viewBox="0 0 210 297"
   version="1.1"
   id="svg3742"
   inkscape:version="0.92.4 (5da689c313, 2019-01-14)"
   sodipodi:docname="rechtsV1.svg">
  <defs
     id="defs3736">
    <style
       id="style3744">.cls-1{fill:none;stroke:#00dce3;stroke-miterlimit:10;}</style>
  </defs>
  <sodipodi:namedview
     id="base"
     pagecolor="#ffffff"
     bordercolor="#666666"
     borderopacity="1.0"
     inkscape:pageopacity="0.0"
     inkscape:pageshadow="2"
     inkscape:zoom="0.98994949"
     inkscape:cx="242.88557"
     inkscape:cy="372.00325"
     inkscape:document-units="mm"
     inkscape:current-layer="layer1"
     showgrid="false"
     inkscape:window-width="1920"
     inkscape:window-height="1137"
     inkscape:window-x="-8"
     inkscape:window-y="-8"
     inkscape:window-maximized="1" />
  <metadata
     id="metadata3739">
    <rdf:RDF>
      <cc:Work
         rdf:about="">
        <dc:format>image/svg+xml</dc:format>
        <dc:type
           rdf:resource="http://purl.org/dc/dcmitype/StillImage" />
        <dc:title></dc:title>
      </cc:Work>
    </rdf:RDF>
  </metadata>
  <g
     inkscape:label="Ebene 1"
     inkscape:groupmode="layer"
     id="layer1">
    <g
       data-name="Ebene 2"
       id="Ebene_2"
       transform="matrix(0.26458333,0,0,0.26458333,0,121.49257)">
      <g
         data-name="Ebene 2"
         id="Ebene_2-2">
        <path
           id="path3750"
           d="M 0,155.49 H 27.75 55.5 83.25 111 c 4.815,-11.385 10.43719,-22.34547 16.79482,-32.80965 6.35764,-10.46418 13.45073,-20.43207 21.20752,-29.831913 7.7568,-9.399843 16.17731,-18.23164 25.18979,-26.423632 9.01248,-8.191992 18.61693,-15.74418 28.74162,-22.584805 10.12469,-6.840625 20.76961,-12.969687 31.86303,-18.31543 11.09342,-5.345742 22.63533,-9.908164 34.554,-13.615507 11.91867,-3.7073442 24.2141,-6.5596099 36.81455,-8.4850396 C 318.76578,1.4985937 331.67125,0.5 344.81,0.5 c 8.76188,0 17.41977,0.44378906 25.95244,1.3101099 8.53268,0.8663208 16.94015,2.1551733 25.20117,3.8453003 8.26103,1.6901269 16.37561,3.7815283 24.32253,6.2529468 7.94692,2.471418 15.72616,5.322854 23.31652,8.533049 7.59035,3.210196 14.9918,6.779151 22.18313,10.685608 7.19133,3.906458 14.17254,8.150418 20.92239,12.710623 6.74986,4.560205 13.26836,9.436655 19.53428,14.608093 6.26592,5.171438 12.27926,10.637864 18.01879,16.37802 5.73953,5.740156 11.20525,11.754043 16.37594,18.020403 5.17069,6.26636 10.04634,12.785197 14.60572,19.535237 4.55938,6.75005 8.80251,13.73132 12.70813,20.92254 3.90563,7.19122 7.47376,14.59241 10.68318,22.18229 3.20941,7.58988 6.06011,15.36847 8.53085,23.31449 2.47075,7.94603 4.56154,16.0595 6.25116,24.31916 1.68962,8.25966 2.97806,16.6655 3.8441,25.19628 0.86604,8.53077 1.30967,17.18647 1.30967,25.94585 0,7.03688 -0.28641,14.00684 -0.8482,20.89886 -0.56179,6.89203 -1.39896,13.70612 -2.50049,20.43126 -1.10153,6.72513 -2.46743,13.36132 -4.08666,19.89752 -1.61923,6.53621 -3.4918,12.97244 -5.60668,19.29767 -2.11488,6.32524 -4.47208,12.53948 -7.06057,18.6317 -2.58849,6.09222 -5.40827,12.06242 -8.44832,17.89959 -3.04005,5.83717 -6.30036,11.5413 -9.76993,17.10137 -3.46956,5.56008 -7.14837,10.97609 -11.0254,16.23703 -3.87703,5.26094 -7.95229,10.3668 -12.21474,15.30656 -4.26245,4.93976 -8.71211,9.71342 -13.33794,14.30996 -4.62583,4.59655 -9.42783,9.01597 -14.39499,13.24725 -4.96716,4.23129 -10.09948,8.27443 -15.38592,12.11842 -5.28645,3.84398 -10.72703,7.48881 -16.31071,10.92345 -5.58368,3.43464 -11.31048,6.65911 -17.16935,9.66237 -5.85888,3.00326 -11.84984,5.78532 -17.96187,8.33516 -6.11202,2.54984 -12.3451,4.86745 -18.68823,6.94183 l 0.24,2 10.4425,20.70125 10.4425,20.70125 10.4425,20.70125 10.4425,20.70125 10.4425,20.70125 10.4425,20.70125 10.4425,20.70125 L 507.54,663.11"
           class="cls-1"
           inkscape:connector-curvature="0"
           style="fill:none;stroke:#00dce3;stroke-miterlimit:10"
           sodipodi:nodetypes="cccccssssssssssssssssssssssssssssssssssssssscccccccccc" />
      </g>
    </g>
  </g>
</svg>
