<?xml version="1.0" encoding="UTF-8" standalone="no"?>
<!-- Created with Inkscape (http://www.inkscape.org/) -->

<svg
   xmlns:dc="http://purl.org/dc/elements/1.1/"
   xmlns:cc="http://creativecommons.org/ns#"
   xmlns:rdf="http://www.w3.org/1999/02/22-rdf-syntax-ns#"
   xmlns:svg="http://www.w3.org/2000/svg"
   xmlns="http://www.w3.org/2000/svg"
   xmlns:sodipodi="http://sodipodi.sourceforge.net/DTD/sodipodi-0.dtd"
   xmlns:inkscape="http://www.inkscape.org/namespaces/inkscape"
   width="210mm"
   height="297mm"
   viewBox="0 0 210 297"
   version="1.1"
   id="svg8"
   inkscape:version="0.92.4 (5da689c313, 2019-01-14)"
   sodipodi:docname="linksV1.svg">
  <defs
     id="defs2">
    <style
       id="style10">.cls-1{fill:none;stroke:#00dce3;stroke-miterlimit:10;}</style>
  </defs>
  <sodipodi:namedview
     id="base"
     pagecolor="#ffffff"
     bordercolor="#666666"
     borderopacity="1.0"
     inkscape:pageopacity="0.0"
     inkscape:pageshadow="2"
     inkscape:zoom="0.49497475"
     inkscape:cx="-69.244336"
     inkscape:cy="279.09091"
     inkscape:document-units="mm"
     inkscape:current-layer="layer1"
     showgrid="false"
     inkscape:window-width="1920"
     inkscape:window-height="1137"
     inkscape:window-x="-8"
     inkscape:window-y="-8"
     inkscape:window-maximized="1" />
  <metadata
     id="metadata5">
    <rdf:RDF>
      <cc:Work
         rdf:about="">
        <dc:format>image/svg+xml</dc:format>
        <dc:type
           rdf:resource="http://purl.org/dc/dcmitype/StillImage" />
        <dc:title />
      </cc:Work>
    </rdf:RDF>
  </metadata>
  <g
     inkscape:label="Ebene 1"
     inkscape:groupmode="layer"
     id="layer1">
    <g
       data-name="Ebene 2"
       id="Ebene_2"
       transform="matrix(0.26458333,0,0,0.26458333,0,121.49257)">
      <g
         data-name="Ebene 2"
         id="Ebene_2-2">
        <path
           id="path16"
           d="M 91,663.11 101.44125,642.40875 111.8825,621.7075 122.32375,601.00625 132.765,580.305 143.20625,559.60375 153.6475,538.9025 164.08875,518.20125 174.53,497.5 l 0.79,-2 c -6.34375,-2.07438 -12.57742,-4.39199 -18.69,-6.94183 -6.11257,-2.54984 -12.10404,-5.3319 -17.9634,-8.33516 -5.85935,-3.00326 -11.58659,-6.22773 -17.17069,-9.66237 -5.58409,-3.43464 -11.02505,-7.07947 -16.31185,-10.92345 -5.286794,-3.84399 -10.419431,-7.88713 -15.386887,-12.11842 -4.967456,-4.23128 -9.769732,-8.6507 -14.395806,-13.24725 -4.626074,-4.59654 -9.075947,-9.3702 -13.338598,-14.30996 C 57.800117,415.0218 53.724687,409.91594 49.8475,404.655 c -3.877187,-5.26094 -7.556133,-10.67695 -11.025815,-16.23703 -3.469683,-5.56007 -6.730103,-11.2642 -9.77024,-17.10137 -3.040136,-5.83717 -5.85999,-11.80737 -8.44854,-17.89959 -2.58855,-6.09222 -4.945796,-12.30646 -7.060718,-18.6317 C 11.427266,328.46008 9.554668,322.02385 7.935415,315.48764 6.3161621,308.95144 4.9502539,302.31525 3.8487109,295.59012 2.747168,288.86498 1.9099902,282.05089 1.3481982,275.15886 0.78640625,268.26684 0.5,261.29687 0.5,254.26 c 0,-8.75938 0.44378906,-17.41508 1.3101099,-25.94585 0.8663208,-8.53078 2.1551733,-16.93662 3.8453003,-25.19628 1.6901269,-8.25966 3.7815283,-16.37313 6.2529468,-24.31916 2.471418,-7.94602 5.322854,-15.72461 8.533049,-23.31449 3.210196,-7.58988 6.779151,-14.99107 10.685608,-22.18229 3.906458,-7.19122 8.150418,-14.17249 12.710623,-20.92254 4.560205,-6.75004 9.436655,-13.268877 14.608093,-19.535237 5.171438,-6.26636 10.637864,-12.280247 16.37802,-18.020403 5.740156,-5.740156 11.754043,-11.206582 18.020403,-16.37802 6.26636,-5.171438 12.785197,-10.047888 19.535237,-14.608093 6.75005,-4.560205 13.73132,-8.804165 20.92254,-12.710623 7.19122,-3.906457 14.59241,-7.475412 22.18229,-10.685608 7.58988,-3.210195 15.36847,-6.061631 23.31449,-8.533049 7.94603,-2.4714185 16.0595,-4.5628199 24.31916,-6.2529468 8.25966,-1.690127 16.6655,-2.9789795 25.19628,-3.8453003 C 236.84492,0.94378906 245.50063,0.5 254.26,0.5 c 13.13875,0 26.04438,0.9985937 38.6451,2.924043 12.60072,1.9254492 24.89654,4.7777539 36.81568,8.485176 11.91914,3.707422 23.4616,8.269961 34.55561,13.615879 11.094,5.345918 21.73955,11.475215 31.86486,18.316152 10.12531,6.840937 19.73039,14.393516 28.74346,22.585996 9.01306,8.192481 17.43412,17.024863 25.19138,26.42541 7.75727,9.400544 14.85075,19.369254 21.20866,29.834394 6.35791,10.46514 11.98025,21.4267 16.79525,32.81295 h 27.6475 27.6475 27.6475 27.6475"
           class="cls-1"
           inkscape:connector-curvature="0"
           style="fill:none;stroke:#00dce3;stroke-miterlimit:10"
           sodipodi:nodetypes="ccccccccccsssssssssssssssssssssssssssssssssssssssccccc" />
      </g>
    </g>
  </g>
</svg>
